<?xml version="1.0" standalone="no"?>
<!DOCTYPE svg PUBLIC "-//W3C//DTD SVG 20010904//EN"
 "http://www.w3.org/TR/2001/REC-SVG-20010904/DTD/svg10.dtd">
<svg version="1.0" xmlns="http://www.w3.org/2000/svg"
 width="39.000000pt" height="44.000000pt" viewBox="0 0 39.000000 44.000000"
 preserveAspectRatio="xMidYMid meet">

<g transform="translate(0.000000,44.000000) scale(0.100000,-0.100000)"
fill="#000000" stroke="none">
<path d="M0 220 l0 -220 195 0 195 0 0 220 0 220 -195 0 -195 0 0 -220z m242
81 c9 -15 16 -17 34 -9 35 16 54 -5 54 -61 0 -64 -11 -79 -49 -65 -26 10 -30
9 -34 -7 -4 -16 -15 -19 -79 -19 -44 0 -79 5 -86 12 -15 15 -16 122 -2 149 9
16 22 19 80 19 58 0 72 -3 82 -19z"/>
<path d="M100 230 l0 -60 60 0 60 0 0 60 0 60 -60 0 -60 0 0 -60z"/>
<path d="M273 258 c-30 -15 -29 -42 2 -56 24 -11 25 -11 25 28 0 22 -1 40 -2
39 -2 0 -13 -5 -25 -11z"/>
</g>
</svg>
